Coordinates
version=1
nRows=26
nColumns=22
inDegrees=yes

Units are S.I. units (second, meters, Newtons, ...)
If the header above contains a line with 'inDegrees', this indicates whether rotational values are in degrees (yes) or radians (no).

endheader
time	pelvis_tilt	pelvis_list	pelvis_rotation	pelvis_tx	pelvis_ty	pelvis_tz	hip_flexion_r	hip_adduction_r	hip_rotation_r	knee_angle_r	ankle_angle_r	subtalar_angle_r	hip_flexion_l	hip_adduction_l	hip_rotation_l	knee_angle_l	ankle_angle_l	subtalar_angle_l	lumbar_extension	lumbar_bending	lumbar_rotation
      0.01000000	    -11.29265358	     -0.94359630	     -5.87757469	     -0.82450763	      0.98159079	      0.27432649	     17.43949645	      1.58337479	     -2.35221577	    -17.98863857	     16.88349634	     -4.86491929	     18.41635894	     -1.00656702	     -4.57459250	    -17.64794418	     17.52393070	     -2.92911392	      5.40504411	      3.03158940	      3.21679076
      0.02000000	    -11.29134685	     -0.97079211	     -5.86754751	     -0.82451560	      0.98157519	      0.27427185	     17.43660868	      1.60645477	     -2.37293900	    -17.98971352	     16.85630598	     -4.85235543	     18.42778065	     -1.02859218	     -4.54859545	    -17.67492030	     17.55058358	     -2.92231999	      5.39685073	      3.05102922	      3.25717902
      0.03000000	    -11.28991491	     -0.97767577	     -5.85685749	     -0.82447902	      0.98156050	      0.27419941	     17.43326699	      1.60780212	     -2.37177055	    -17.99383180	     16.85544270	     -4.85135608	     18.42753924	     -1.02889920	     -4.54746510	    -17.67901857	     17.55342006	     -2.92189957	      5.40072810	      3.05218329	      3.25975695
      0.04000000	    -11.28460352	     -0.99722996	     -5.83773561	     -0.82450315	      0.98154068	      0.27412070	     17.42686175	      1.61862217	     -2.39384357	    -17.99516618	     16.85689181	     -4.84503051	     18.44515737	     -1.03927977	     -4.50855572	    -17.72174027	     17.57881752	     -2.92015280	      5.38330672	      3.05969696	      3.28203398
      0.05000000	    -11.28396051	     -1.00426239	     -5.82498905	     -0.82447180	      0.98152505	      0.27403958	     17.42454456	      1.61928831	     -2.39517444	    -17.99941100	     16.85706708	     -4.84424188	     18.44542691	     -1.03863726	     -4.50676872	    -17.72418417	     17.58230526	     -2.92026401	      5.38493326	      3.06164658	      3.28474204
      0.06000000	    -11.27855230	     -1.03707538	     -5.78421395	     -0.82448936	      0.98150047	      0.27391959	     17.41871972	      1.63434952	     -2.46375634	    -18.00806581	     16.86855880	     -4.83136976	     18.46406478	     -1.05505257	     -4.44249090	    -17.76693415	     17.63018508	     -2.92584361	      5.36622676	      3.08790756	      3.26134454
      0.07000000	    -11.27927554	     -1.04081551	     -5.77397479	     -0.82447960	      0.98148139	      0.27383492	     17.41788088	      1.63205674	     -2.46285149	    -18.00848147	     16.86844431	     -4.83089969	     18.46749820	     -1.05136090	     -4.44025082	    -17.76959430	     17.63020110	     -2.92633977	      5.36255207	      3.08953354	      3.26728753
      0.08000000	    -11.27414480	     -1.04518435	     -5.75927518	     -0.82450422	      0.98146024	      0.27375207	     17.41582841	      1.62872411	     -2.47002926	    -18.01484503	     16.87232866	     -4.82962492	     18.48065184	     -1.04607212	     -4.40935520	    -17.80154001	     17.63457834	     -2.93019584	      5.34524624	      3.08632399	      3.28262983
      0.09000000	    -11.26951702	     -1.05341254	     -5.73830448	     -0.82453155	      0.98143314	      0.27364607	     17.41858097	      1.62692316	     -2.47936866	    -18.03183605	     16.88320140	     -4.82987282	     18.49205086	     -1.04205768	     -4.37721754	    -17.82655519	     17.64728722	     -2.93832317	      5.32678950	      3.09275466	      3.27289556
      0.10000000	    -11.27038538	     -1.05653636	     -5.72969340	     -0.82452042	      0.98140986	      0.27355225	     17.41907775	      1.62404023	     -2.47806259	    -18.03346687	     16.88448759	     -4.83010917	     18.49501644	     -1.03719333	     -4.37564792	    -17.82801659	     17.64888241	     -2.93947937	      5.32259739	      3.09865788	      3.27407858
      0.11000000	    -11.26297378	     -1.06244689	     -5.71260539	     -0.82456576	      0.98138279	      0.27345035	     17.42167776	      1.62177295	     -2.47193571	    -18.05290344	     16.89656246	     -4.83248907	     18.51293040	     -1.03163052	     -4.33733478	    -17.87072380	     17.66144281	     -2.94867966	      5.29748345	      3.10133513	      3.26856807
      0.12000000	    -11.26075204	     -1.07033623	     -5.69502364	     -0.82458927	      0.98135381	      0.27333386	     17.42686336	      1.62056140	     -2.47395318	    -18.06876406	     16.91119817	     -4.83588695	     18.53102707	     -1.02744294	     -4.30702869	    -17.90357073	     17.67726158	     -2.96219969	      5.28206259	      3.11117625	      3.25696417
      0.13000000	    -11.26146189	     -1.07326532	     -5.68828001	     -0.82456586	      0.98133738	      0.27321978	     17.42750988	      1.61557501	     -2.47152383	    -18.07161949	     16.91239209	     -4.83639113	     18.53514877	     -1.02166404	     -4.30450509	    -17.90826270	     17.67913880	     -2.96428484	      5.27863790	      3.11974672	      3.25855831
      0.14000000	    -11.25661162	     -1.07630838	     -5.67959271	     -0.82459988	      0.98131613	      0.27310673	     17.43342205	      1.61111271	     -2.46096886	    -18.09062451	     16.92004978	     -4.83832129	     18.55779740	     -1.01404872	     -4.27282276	    -17.95659250	     17.68960891	     -2.97627999	      5.25675901	      3.12149385	      3.26180686
      0.15000000	    -11.25839028	     -1.08053546	     -5.66596373	     -0.82459905	      0.98129070	      0.27296515	     17.44290908	      1.60463453	     -2.46139073	    -18.10767564	     16.93254290	     -4.83966820	     18.58004135	     -1.00643302	     -4.25288801	    -17.99175536	     17.70406880	     -2.99637996	      5.24928823	      3.12852641	      3.26216338
      0.16000000	    -11.25978354	     -1.08191013	     -5.66454002	     -0.82455301	      0.98128716	      0.27281450	     17.44315149	      1.59600808	     -2.45973504	    -18.10907030	     16.93338951	     -4.83958665	     18.58281217	     -0.99759391	     -4.25220304	    -17.99609116	     17.70493799	     -2.99856744	      5.24725448	      3.13991921	      3.26505678
      0.17000000	    -11.25550991	     -1.07470204	     -5.66208995	     -0.82453274	      0.98128451	      0.27265179	     17.44464371	      1.57670056	     -2.45715884	    -18.11957317	     16.93947868	     -4.83619956	     18.59458571	     -0.97795559	     -4.24056265	    -18.02717781	     17.70919290	     -3.01163744	      5.23204427	      3.13598445	      3.28415913
      0.18000000	    -11.25634445	     -1.07546901	     -5.65808890	     -0.82447138	      0.98128831	      0.27246384	     17.44405093	      1.56469640	     -2.45486251	    -18.12206215	     16.94078823	     -4.83538950	     18.59451605	     -0.96603421	     -4.24341690	    -18.02830481	     17.70975559	     -3.01387157	      5.22919887	      3.14708256	      3.28954348
      0.19000000	    -11.21716405	     -1.01241128	     -5.68415520	     -0.82439130	      0.98134293	      0.27228694	     17.43266399	      1.48301668	     -2.44654565	    -18.17015890	     16.98373852	     -4.80382707	     18.53301455	     -0.88887075	     -4.28887286	    -17.99261783	     17.69586715	     -3.06317585	      5.18070877	      3.07924533	      3.34519736
      0.20000000	    -11.21940464	     -1.01364107	     -5.68258717	     -0.82433054	      0.98134606	      0.27207451	     17.43085570	      1.47064743	     -2.44393301	    -18.16692391	     16.98429714	     -4.80249884	     18.53227667	     -0.87654894	     -4.29226942	    -17.99094998	     17.69486411	     -3.06439554	      5.17368673	      3.09170700	      3.35312813
      0.21000000	    -11.12478497	     -0.94871353	     -5.74196767	     -0.82419076	      0.98151142	      0.27194795	     17.33710841	      1.39455202	     -2.38160771	    -18.17115255	     17.03144122	     -4.74267375	     18.37855651	     -0.80156995	     -4.37490588	    -17.90553921	     17.64861930	     -3.10927614	      5.05634147	      3.01455170	      3.45459072
      0.22000000	    -11.07437621	     -0.92600871	     -5.76623099	     -0.82409900	      0.98159489	      0.27175934	     17.29153457	      1.35552086	     -2.36777593	    -18.18591477	     17.02633698	     -4.71290794	     18.29710134	     -0.76601228	     -4.42201263	    -17.86210263	     17.65070070	     -3.12501157	      4.98566355	      2.99155558	      3.49798545
      0.23000000	    -11.08078612	     -0.92994431	     -5.76434019	     -0.82406662	      0.98158168	      0.27154530	     17.29483194	      1.34656545	     -2.36846043	    -18.18127211	     17.02674295	     -4.71253343	     18.29925894	     -0.75752527	     -4.42675686	    -17.85550360	     17.65142059	     -3.12525153	      4.97256982	      3.00020134	      3.50478279
      0.24000000	    -11.03589561	     -0.88748132	     -5.80857475	     -0.82399526	      0.98164863	      0.27138459	     17.27109953	      1.29195584	     -2.34631047	    -18.21749896	     17.03554038	     -4.69210183	     18.21546026	     -0.70883293	     -4.50706214	    -17.79397058	     17.64246683	     -3.13739589	      4.90437029	      2.95076573	      3.58735773
      0.25000000	    -11.03224112	     -0.88551148	     -5.81402643	     -0.82395860	      0.98165131	      0.27116172	     17.25967491	      1.27497343	     -2.35265183	    -18.20215439	     17.04144925	     -4.68668997	     18.20557320	     -0.69388182	     -4.51661919	    -17.78705248	     17.63941188	     -3.14034849	      4.87826168	      2.95049373	      3.62502518
      0.26000000	    -10.98856238	     -0.86063555	     -5.84021078	     -0.82391827	      0.98171663	      0.27097820	     17.22253868	      1.23652930	     -2.32824693	    -18.21334217	     17.05885154	     -4.66379734	     18.13320315	     -0.65922168	     -4.57200530	    -17.73992937	     17.63010697	     -3.15399936	      4.80221878	      2.91574466	      3.67383626
